<?xml version="1.0" encoding="utf-8"?>
<!-- Generator: Adobe Illustrator 19.0.0, SVG Export Plug-In . SVG Version: 6.00 Build 0)  -->
<svg version="1.1" id="レイヤー_1" xmlns="http://www.w3.org/2000/svg" xmlns:xlink="http://www.w3.org/1999/xlink" x="0px"
	 y="0px" viewBox="0 0 100 100" style="enable-background:new 0 0 100 100;" xml:space="preserve">
<style type="text/css">
	.st0{fill:#29ABE2;}
	.st1{fill:#FFFFFF;}
</style>
<g>
	<path class="st0" d="M100,50c0,27.6-22.4,50-50,50S0,77.6,0,50S22.4,0,50,0S100,22.4,100,50"/>
	<path class="st1" d="M76,34c0,0,4-4,5-7c0,0-6,3-9,3c-1-4-23-10-23,12c0,1.6-17-1-28-14c0,0-6,8,3,18c0,0-1.9,0.5-5-2.3
		c0,0,0,11.3,9,14.3h-4c0,0,1,8,11,10c0,0,0,3-17,5c0,0,5.9,4.3,10,5c12,2,48,2,48-38c0,0,5-3,6-7C82,33,78,34,76,34"/>
</g>
</svg>
