<?xml version="1.0" encoding="utf-8"?>
<!-- Generator: Adobe Illustrator 19.0.0, SVG Export Plug-In . SVG Version: 6.00 Build 0)  -->
<svg version="1.1" id="レイヤー_1" xmlns="http://www.w3.org/2000/svg" xmlns:xlink="http://www.w3.org/1999/xlink" x="0px"
	 y="0px" viewBox="0 0 100 100" style="enable-background:new 0 0 100 100;" xml:space="preserve">
<style type="text/css">
	.st0{fill:#F15A24;}
	.st1{fill:#FFFFFF;}
</style>
<g>
	<path class="st0" d="M100,50c0,27.6-22.4,50-50,50C22.4,100,0,77.6,0,50S22.4,0,50,0C77.6,0,100,22.4,100,50"/>
	<path class="st1" d="M32,56c-5.5,0-10,4.5-10,10c0,5.5,4.5,10,10,10c5.5,0,10-4.5,10-10C42,60.5,37.5,56,32,56"/>
	<path class="st1" d="M22,37v8c26.2,0,31.5,12.1,31.5,31.5h8C61.5,58.1,57,37,22,37"/>
	<path class="st1" d="M22.5,19v9c34.1,0,48,13.6,48,47h9C79.5,36.8,61.4,19,22.5,19"/>
</g>
</svg>
